<?xml version="1.0" standalone="no"?>
<!DOCTYPE svg PUBLIC "-//W3C//DTD SVG 20010904//EN"
 "http://www.w3.org/TR/2001/REC-SVG-20010904/DTD/svg10.dtd">
<svg version="1.0" xmlns="http://www.w3.org/2000/svg"
 width="260.000000pt" height="260.000000pt" viewBox="0 0 260.000000 260.000000"
 preserveAspectRatio="xMidYMid meet">

<g transform="translate(0.000000,260.000000) scale(0.100000,-0.100000)"
fill="#000000" stroke="none">
<path d="M1763 2582 c-29 -10 -69 -30 -90 -45 -21 -15 -190 -179 -376 -364
l-337 -338 95 -95 95 -94 322 321 c316 314 324 321 371 328 84 13 115 -7 284
-178 165 -166 180 -192 168 -275 -7 -46 -16 -57 -328 -370 l-322 -322 95 -95
95 -95 352 352 c409 411 408 409 408 563 0 140 -12 157 -294 438 -265 265
-282 277 -411 284 -56 3 -88 -1 -127 -15z"/>
<path d="M1575 1806 c-16 -7 -198 -181 -403 -386 -401 -402 -407 -409 -383
-483 7 -20 37 -59 70 -90 66 -63 108 -77 162 -54 46 19 767 740 786 786 23 53
9 96 -50 159 -73 78 -120 95 -182 68z"/>
<path d="M403 1278 c-296 -297 -346 -351 -369 -402 -48 -104 -42 -233 14 -326
23 -37 451 -468 492 -494 99 -64 226 -72 336 -22 51 23 106 74 404 371 l345
345 -90 90 c-49 49 -94 90 -100 90 -5 0 -149 -139 -320 -309 -301 -300 -311
-310 -357 -316 -83 -12 -109 3 -275 168 -171 169 -191 200 -178 284 7 47 14
55 316 358 170 171 309 315 309 320 0 10 -170 185 -180 185 -3 0 -159 -154
-347 -342z"/>
</g>
</svg>
