<svg version="1.0" xmlns="http://www.w3.org/2000/svg"
 width="100.000000pt" height="100.000000pt" viewBox="0 0 100.000000 100.000000"
 preserveAspectRatio="xMidYMid meet">

<g transform="translate(0.000000,100.000000) scale(0.100000,-0.100000)"
fill="#ffffff" stroke="none">
<path d="M0 500 l0 -500 500 0 500 0 0 500 0 500 -500 0 -500 0 0 -500z m220
155 l0 -75 75 0 75 0 0 75 0 75 70 0 70 0 0 -215 0 -215 -70 0 -70 0 0 80 0
80 -75 0 -75 0 0 -80 0 -80 -70 0 -70 0 0 215 0 215 70 0 70 0 0 -75z m720 25
l0 -50 -100 0 -100 0 0 -35 0 -35 85 0 85 0 0 -50 0 -50 -85 0 -84 0 -3 -77
-3 -78 -70 0 -70 0 -3 213 -2 212 175 0 175 0 0 -50z"/>
</g>
</svg>